/* XPM */
static char *Pixmap[] = {
"33 60 256 3",
"000 c #22000F",
"001 c #270212",
"002 c #752A37",
"003 c #6A3340",
"004 c #7D3F4E",
"005 c #763E53",
"006 c #74414B",
"007 c #7A424D",
"008 c #744351",
"009 c #7B4752",
"010 c #7B4259",
"011 c #6A6B76",
"012 c #6E7078",
"013 c #796D76",
"014 c #76767C",
"015 c #787B83",
"016 c #518B6F",
"017 c #6D877F",
"018 c #7E808C",
"019 c #7B978A",
"020 c #8D283E",
"021 c #91273A",
"022 c #A7253C",
"023 c #AA243A",
"024 c #B3273E",
"025 c #863447",
"026 c #9D314F",
"027 c #9D3954",
"028 c #A73048",
"029 c #A13C53",
"030 c #BE2C46",
"031 c #BC3A52",
"032 c #BB385A",
"033 c #8B4153",
"034 c #93445B",
"035 c #984756",
"036 c #864864",
"037 c #865060",
"038 c #855C67",
"039 c #8C5D64",
"040 c #9D466A",
"041 c #9A5174",
"042 c #82656D",
"043 c #8C676F",
"044 c #89717A",
"045 c #956C78",
"046 c #92777F",
"047 c #997679",
"048 c #A3435A",
"049 c #A84366",
"050 c #A0506A",
"051 c #AA5A7B",
"052 c #B54569",
"053 c #B34578",
"054 c #B56074",
"055 c #C42C46",
"056 c #CB304C",
"057 c #C93352",
"058 c #C83F59",
"059 c #DA3758",
"060 c #C93E63",
"061 c #E7314F",
"062 c #E8314F",
"063 c #E33A5D",
"064 c #EB3353",
"065 c #EA3A5D",
"066 c #F13554",
"067 c #F63859",
"068 c #FB3556",
"069 c #FD3658",
"070 c #FE395B",
"071 c #E53C61",
"072 c #FE3D61",
"073 c #C7436A",
"074 c #CB4C7A",
"075 c #C85B6F",
"076 c #CC5C71",
"077 c #D4456B",
"078 c #D04F7E",
"079 c #D3556E",
"080 c #D35D72",
"081 c #DD5F76",
"082 c #DA6076",
"083 c #E3456C",
"084 c #E44A77",
"085 c #E35677",
"086 c #E4507F",
"087 c #E15E76",
"088 c #EA5E77",
"089 c #F54067",
"090 c #FF4165",
"091 c #FE436B",
"092 c #FE4B77",
"093 c #F65E7A",
"094 c #FD5576",
"095 c #FF507F",
"096 c #F95A76",
"097 c #FE5A79",
"098 c #EA6078",
"099 c #F7637D",
"100 c #877E84",
"101 c #9A7184",
"102 c #BA6EA2",
"103 c #CB5282",
"104 c #D178B3",
"105 c #E45385",
"106 c #E95C93",
"107 c #FE5487",
"108 c #FE5B92",
"109 c #E75EA3",
"110 c #E86F84",
"111 c #E9609A",
"112 c #F66281",
"113 c #FF6086",
"114 c #FD688B",
"115 c #FE639C",
"116 c #F77A93",
"117 c #FE7491",
"118 c #FF719B",
"119 c #E969A7",
"120 c #FE68A6",
"121 c #FC6EB0",
"122 c #FF70AC",
"123 c #FD75B9",
"124 c #FD7BC4",
"125 c #808386",
"126 c #83858C",
"127 c #86898C",
"128 c #8C848C",
"129 c #818590",
"130 c #868993",
"131 c #8A8B94",
"132 c #8A8C99",
"133 c #8E9497",
"134 c #8E929B",
"135 c #97838C",
"136 c #978D95",
"137 c #919396",
"138 c #91949C",
"139 c #94999B",
"140 c #9A9098",
"141 c #8A9BA5",
"142 c #9496A1",
"143 c #9599A2",
"144 c #9A9CA3",
"145 c #9A9BA9",
"146 c #9DA0A6",
"147 c #9DA2AA",
"148 c #9BA9B3",
"149 c #A48B8E",
"150 c #A18690",
"151 c #A1949C",
"152 c #A59BA3",
"153 c #A1A4AB",
"154 c #A5A8AD",
"155 c #ABA2AA",
"156 c #A4A6B1",
"157 c #A5A9B3",
"158 c #A9ACB2",
"159 c #ABAEB8",
"160 c #ACB0B8",
"161 c #B2A7AE",
"162 c #B6ADB3",
"163 c #BAAEB2",
"164 c #B1B5BD",
"165 c #B3B8BD",
"166 c #BBB0B4",
"167 c #BFB8BC",
"168 c #9DB3C7",
"169 c #AFBAC3",
"170 c #B4B6C1",
"171 c #B5B9C1",
"172 c #B9BDC4",
"173 c #B8BBC9",
"174 c #AFC8D9",
"175 c #BDC2C9",
"176 c #B8C8D7",
"177 c #C98198",
"178 c #C88AA7",
"179 c #DF84A5",
"180 c #D29DAC",
"181 c #CFADBE",
"182 c #C1B8BC",
"183 c #E48BAF",
"184 c #EF91A5",
"185 c #EB94B8",
"186 c #FB8AA6",
"187 c #FC89B8",
"188 c #F190AE",
"189 c #FB97B6",
"190 c #E3A2BE",
"191 c #F7A6BC",
"192 c #DC87C3",
"193 c #CCABC5",
"194 c #CEB5C8",
"195 c #DABCC5",
"196 c #EC85C2",
"197 c #FC84C8",
"198 c #FD88D7",
"199 c #F69EC6",
"200 c #FE92DD",
"201 c #E892E8",
"202 c #FD8EE2",
"203 c #FE96E9",
"204 c #FE9BF7",
"205 c #EEB6C2",
"206 c #EABAC7",
"207 c #F4A7CA",
"208 c #FFB7CD",
"209 c #FDB9D2",
"210 c #FFA7EE",
"211 c #FEA6F4",
"212 c #FFB0EC",
"213 c #FDB6F6",
"214 c #C2C5CC",
"215 c #C4C8CE",
"216 c #CDC2C7",
"217 c #CBC4C9",
"218 c #C4C6D1",
"219 c #C5CAD2",
"220 c #C9CDD3",
"221 c #C9CBDA",
"222 c #CCD0D5",
"223 c #CBD1D9",
"224 c #D4C9CD",
"225 c #D5CDD3",
"226 c #D0D2D7",
"227 c #D1D5DB",
"228 c #DEDADC",
"229 c #D2D5E1",
"230 c #D5DAE1",
"231 c #D9DDE3",
"232 c #DBE0E6",
"233 c #DEE4EA",
"234 c #E6D2DC",
"235 c #E3D9DC",
"236 c #EADBDF",
"237 c #FCC9DB",
"238 c #F7D3DD",
"239 c #E4DDE6",
"240 c #FDCCE2",
"241 c #FEC7F8",
"242 c #FAD7E7",
"243 c #FBDBF6",
"244 c #E2E4E8",
"245 c #EAEDF0",
"246 c #F6E6EC",
"247 c #F9E6F9",
"248 c #F3F3F5",
"249 c #F6F6FD",
"250 c #F7FBFE",
"251 c #F9F1F4",
"252 c #F9F3FA",
"253 c #FEFEFE",
"254 c black",
"255 c black",
"253253253253253250252247247243247243247243243243243243243242243242243242242242242252253253253253253",
"253253253253247241211211204211204203203203203200200200198198197197197124187123187187209252253253253",
"253253253243211204204204204204203204212212203202202198198197197124124123123121119120121187252253253",
"253253243211204204211243213213241241213213212212203198198198198197197123121041001036120120183253253",
"253252213204204204213241243241243241241241241241200200198198197196196123109036000010120120106234253",
"253243204204204204204204204204204204204203203203202202198198197124124124123119053111120120115178250",
"253241204204204204201193194194194194194194194194194193194193181193181181181178121121120120115051253",
"253211204204204204193253253253253253253253253253253253253253253253253253253253185121120120115040253",
"250213204204204204226253253253253253253253253253253253253253253253253253253253240121120120120049249",
"249211204204204204226253253253253253253253253253253253253253253253253253253253240121120120115049248",
"252211204204204204226253253253253253253253253253253253253253253253253253253253240121120120115049248",
"252211203204204204225253253253253253253253253253253253253253253253253253253253242120120120115052233",
"247210203204203203225253253253253253253253253253253253253253253253253253253253240121120120115052233",
"247210203203204203225253253253253253253253253253253253253253253253253253253253240120120120115052232",
"247203203202203203225253253253253253253253253253253253253253253253253253253253240120120115115052232",
"247203202203202202225253253253253253253253253253253253253253253253253253253253240120120115115049244",
"252200202202202202225253253253253253253253253253253253253253253253253253253253240120115115115027245",
"253192198198202198225253253253253253253253253253253253253253253253253253253253240120115115106005253",
"253239102198198198225253253253253253253253253253253253253253253253253253253253240115115106005226253",
"253253244104198197225253253253253253253253253253253253253253253253253253253253240115115005239253253",
"253253253240198124225253253253253253253253253253253253253253253253253253253253240115078161253253253",
"253253253247197197225253253253253253253253253253253253253253253253253253253253240115074216253253253",
"253253253243197124225253253253253253253253253253253253253253253253253253253253240108105194253253253",
"253253253237124123225253253253253253253253253253253253253253253253253253253253240108108179253253253",
"252242209197123123225253253253253253253253253253253253253253253253253253253253240108108115189207246",
"237123123121123121225253253253253253253253253253253253253253253253253253253253237108108107107107177",
"207121121121121121225253253253253253253253253253253253253253253253253253253253237108107108107107050",
"207120121121120121224253253253253253253253253253253253253253253253253253253253237108107107107107034",
"199120120120122120224253253253253253253253253253253253253253253253253253253253237107107107107095037",
"190103111120120115224253253253253253253253253253253253253253253253253253253253237107107107084026140",
"252162101105120115225253253253253253253253253253253253253253253253253253253253237107095027044167250",
"253253253183115115224253253253253253253253253253253253253253253253253253253253237095084135253253253",
"253253253237115115185253253253253253253253253253253253253253253253253253253253189095060182253253253",
"253253253246120108108189209209209209209209208209208208208208208208208208208189107095060217253253253",
"253253253242118108108108108108108108108108108107108107107107107107107095095095095095077216253253253",
"253253253237115108107086086086086086086086084086086084086084084084084084083084092095089180253253253",
"253248246187107073150162161155152152151152151140136140140140136136136136128013037084092112237248253",
"242189118107107135231153153143142130018015014014012015015015129131138138143146214029092092113114206",
"191107107095084161158230148141153158158146138129011015144158158158146141169222164048092091092091054",
"188107095095084155165222138144154158172154156173173145142164171158153146153227153049091092091091034",
"188095095095083155146146015015125127139130130221229157012134137125015014015146144048092091091091033",
"186095092095083152164226019139154154172158158132018012138170165154144047149220153048091091091071038",
"195025032092083152160214017016133144154160156131012142160164146138100039135153171048091071020003224",
"253253216077083152232131130018129131134130134134142134134132144143134138134156220048089004244250253",
"253253253191083152231171229172223153230172230159171214231175227157219158220214221029059152253253253",
"253253253238084152176170227220218156223172227214219219227172230230229231219175170029057216253253253",
"253253253242085152168147160159159157148134157157159159160142164164171214154164160029059195253253253",
"253253251191083152231159230164214165231175232160222227232219230214220165222175219029072112242253253",
"253238186092063140223158230175173164219170223169175219223172220175215215220164164027072090097184253",
"251117091091063140172134160170171169164143164165170171171147172175175219160147170029072072070056244",
"246097090090063151227159232175160164220214233153220220233220222214215138226171218027070072072030224",
"246094090090063151160159215175219219223169223164214175223175227223220219165157164027070070070022232",
"253096090072065136173158223218175172172147172172172175175157215219227244220171170027070070070021253",
"253112072072072042227170230233154232233219244175174174245220232220139245226218159073070070069025253",
"253116072072072028146221157171158172222171231172227226230171220214164214171218013096069070066039253",
"253205067072072072058045128138133138142144144144145144145147144142134131128046110070069069024163253",
"253250079070070070070091094093088087081080080075075076076080082087098099097090069069069062006253253",
"253253236031067072070070070070070070070070070070070070070070070069070069070069069069061002228253253",
"253253253235035055066067070069067070069067070068069069067069069069068069068068062023006228253253253",
"253253253253250163043009007007007007007007007007007007007007007007007007007008042166253253253253253"
};
