/* XPM */
const char* ARM_Logo[] = {
/* columns rows colors chars-per-pixel */
"60 20 256 2",
"   c Gray0",
".  c #800000",
"X  c #008000",
"o  c #808000",
"O  c #000080",
"+  c #800080",
"@  c #008080",
"#  c #c0c0c0",
"$  c #c0dcc0",
"%  c #a6caf0",
"&  c #29bdad",
"*  c #08ad94",
"=  c #08ad9c",
"-  c #08b59c",
";  c #10b59c",
":  c #18b59c",
">  c #18b5a5",
",  c #21b5a5",
"<  c #21bda5",
"1  c #29bda5",
"2  c #29bdad",
"3  c #31bdad",
"4  c #39c6ad",
"5  c #42c6b5",
"6  c #4ac6b5",
"7  c #52c6bd",
"8  c #52ceb5",
"9  c #63cebd",
"0  c #63cec6",
"q  c #6bcec6",
"w  c #6bd6c6",
"e  c #73d6c6",
"r  c #73d6ce",
"t  c #7bd6c6",
"y  c #7bd6ce",
"u  c #84d6ce",
"i  c #8cd6ce",
"p  c #8cdece",
"a  c #8cded6",
"s  c #94ded6",
"d  c #9cded6",
"f  c #9ce7d6",
"g  c #9ce7de",
"h  c #a5e7d6",
"j  c #a5e7de",
"k  c #ade7de",
"l  c #b5e7de",
"z  c #b5e7e7",
"x  c #bdefe7",
"c  c #c6efe7",
"v  c #ceefef",
"b  c #cef7ef",
"n  c #d6f7ef",
"m  c #def7f7",
"M  c #e7f7f7",
"N  c #effff7",
"B  c #f7ffff",
"V  c Gray100",
"C  c Gray100",
"Z  c Gray100",
"A  c Gray100",
"S  c Gray100",
"D  c Gray100",
"F  c Gray100",
"G  c Gray100",
"H  c Gray100",
"J  c Gray100",
"K  c Gray100",
"L  c Gray100",
"P  c Gray100",
"I  c Gray100",
"U  c Gray100",
"Y  c Gray100",
"T  c Gray100",
"R  c Gray100",
"E  c Gray100",
"W  c Gray100",
"Q  c Gray100",
"!  c Gray100",
"~  c Gray100",
"^  c Gray100",
"/  c Gray100",
"(  c Gray100",
")  c Gray100",
"_  c Gray100",
"`  c Gray100",
"'  c Gray100",
"]  c Gray100",
"[  c Gray100",
"{  c Gray100",
"}  c Gray100",
"|  c Gray100",
" . c Gray100",
".. c Gray100",
"X. c Gray100",
"o. c Gray100",
"O. c Gray100",
"+. c Gray100",
"@. c Gray100",
"#. c Gray100",
"$. c Gray100",
"%. c Gray100",
"&. c Gray100",
"*. c Gray100",
"=. c Gray100",
"-. c Gray100",
";. c Gray100",
":. c Gray100",
">. c Gray100",
",. c Gray100",
"<. c Gray100",
"1. c Gray100",
"2. c Gray100",
"3. c Gray100",
"4. c Gray100",
"5. c Gray100",
"6. c Gray100",
"7. c Gray100",
"8. c Gray100",
"9. c Gray100",
"0. c Gray100",
"q. c Gray100",
"w. c Gray100",
"e. c Gray100",
"r. c Gray100",
"t. c Gray100",
"y. c Gray100",
"u. c Gray100",
"i. c Gray100",
"p. c Gray100",
"a. c Gray100",
"s. c Gray100",
"d. c Gray100",
"f. c Gray100",
"g. c Gray100",
"h. c Gray100",
"j. c Gray100",
"k. c Gray100",
"l. c Gray100",
"z. c Gray100",
"x. c Gray100",
"c. c Gray100",
"v. c Gray100",
"b. c Gray100",
"n. c Gray100",
"m. c Gray100",
"M. c Gray100",
"N. c Gray100",
"B. c Gray100",
"V. c Gray100",
"C. c Gray100",
"Z. c Gray100",
"A. c Gray100",
"S. c Gray100",
"D. c Gray100",
"F. c Gray100",
"G. c Gray100",
"H. c Gray100",
"J. c Gray100",
"K. c Gray100",
"L. c Gray100",
"P. c Gray100",
"I. c Gray100",
"U. c Gray100",
"Y. c Gray100",
"T. c Gray100",
"R. c Gray100",
"E. c Gray100",
"W. c Gray100",
"Q. c Gray100",
"!. c Gray100",
"~. c Gray100",
"^. c Gray100",
"/. c Gray100",
"(. c Gray100",
"). c Gray100",
"_. c Gray100",
"`. c Gray100",
"'. c Gray100",
"]. c Gray100",
"[. c Gray100",
"{. c Gray100",
"}. c Gray100",
"|. c Gray100",
" X c Gray100",
".X c Gray100",
"XX c Gray100",
"oX c Gray100",
"OX c Gray100",
"+X c Gray100",
"@X c Gray100",
"#X c Gray100",
"$X c Gray100",
"%X c Gray100",
"&X c Gray100",
"*X c Gray100",
"=X c Gray100",
"-X c Gray100",
";X c Gray100",
":X c Gray100",
">X c Gray100",
",X c Gray100",
"<X c Gray100",
"1X c Gray100",
"2X c Gray100",
"3X c Gray100",
"4X c Gray100",
"5X c Gray100",
"6X c Gray100",
"7X c Gray100",
"8X c Gray100",
"9X c Gray100",
"0X c Gray100",
"qX c Gray100",
"wX c Gray100",
"eX c Gray100",
"rX c Gray100",
"tX c Gray100",
"yX c Gray100",
"uX c Gray100",
"iX c Gray100",
"pX c Gray100",
"aX c Gray100",
"sX c Gray100",
"dX c Gray100",
"fX c Gray100",
"gX c Gray100",
"hX c Gray100",
"jX c Gray100",
"kX c Gray100",
"lX c Gray100",
"zX c Gray100",
"xX c Gray100",
"cX c Gray100",
"vX c Gray100",
"bX c Gray100",
"nX c Gray100",
"mX c Gray100",
"MX c Gray100",
"NX c Gray100",
"BX c Gray100",
"VX c Gray100",
"CX c Gray100",
"ZX c Gray100",
"AX c Gray100",
"SX c Gray100",
"DX c #fffbf0",
"FX c #a0a0a4",
"GX c #808080",
"HX c Red",
"JX c Green",
"KX c Yellow",
"LX c Blue",
"PX c Magenta",
"IX c Cyan",
"UX c Gray100",
/* pixels */
"V V V V V V V V V V V V V V V V V V V V V V V V V V V V V V V V V V V V V V V V V V V V V V V V V V V V V V V V V V V V ",
"V V V V V V V V 4 * * * * : V V V V V V V V k * * * * * * * * * 3 i B V V V V s * * * : m V V V V V V V V V u * * * : V ",
"V V V V V V V v * * * * * * d V V V V V V V k * * * * * * * * * * * 1 m V V V s * * * * 3 B V V V V V V V d * * * * : V ",
"V V V V V V V q * * * * * * 3 V V V V V V V k * * * * * * * * * * * * 4 V V V s * * * * * 6 V V V V V V c * * * * * : V ",
"V V V V V V B ; * * * * * * * x V V V V V V k * * * * u k k u : * * * * x V V s * * * * * * q V V V V n : * * * * * : V ",
"V V V V V V d * * * * 1 * * * 6 V V V V V V k * * * * v V V V k * * * * t V V s * * * * * * * u V V M 1 * * * * * * : V ",
"V V V V V V 3 * * * 6 d * * * * n V V V V V k * * * * v V V V n * * * * t V V s * * * * * * * * k B 4 * * * * * * * : V ",
"V V V V V v * * * * k B ; * * * q V V V V V k * * * * v V V V t * * * * k V V s * * * * * * * * ; 5 * * * * * * * * : V ",
"V V V V V q * * * : V V q * * * ; M V V V V k * * * * 5 7 7 1 * * * * , V V V s * * * * d * * * * * * * * 3 9 * * * : V ",
"V V V V B ; * * * q V V v * * * * u V V V V k * * * * * * * * * * * : n V V V s * * * * m s * * * * * * , M q * * * : V ",
"V V V V d * * * * v V V V 5 * * * : V V V V k * * * * * * * * * * 1 M V V V V s * * * * m V q * * * * ; v V q * * * : V ",
"V V V V 3 * * * 1 V V V V k * * * * d V V V k * * * * 5 6 : * * * * 7 V V V V s * * * * m V V 6 * * * c V V q * * * : V ",
"V V V c * * * * : 4 4 4 4 4 * * * * 3 V V V k * * * * v V M 3 * * * * d V V V s * * * * m V V B 3 * d V V V q * * * : V ",
"V V V 9 * * * * * * * * * * * * * * * x V V k * * * * v V V v * * * * 1 V V V s * * * * m V V V m x V V V V q * * * : V ",
"V V B ; * * * * * * * * * * * * * * * 6 V V k * * * * v V V V 9 * * * * d V V s * * * * m V V V V V V V V V q * * * : V ",
"V V s * * * * q s s s s s s s 4 * * * * n V k * * * * v V V V n * * * * 1 V V s * * * * m V V V V V V V V V q * * * : V ",
"V V 1 * * * : V V V V V V V V c * * * * q V k * * * * v V V V V 6 * * * * l V s * * * * m V V V V V V V V V q * * * : V ",
"V c * * * * e V V V V V V V V V 1 * * * ; M k * * * * v V V V V c * * * * 5 V s * * * * m V V V V V V V V V q * * * : V ",
"V e : : : : v V V V V V V V V V d : : : : s k : : : : v V V V V V 5 : : : : v d : : : : m V V V V V V V V V e : : : 1 V ",
"V V V V V V V V V V V V V V V V V V V V V V V V V V V V V V V V V V V V V V V V V V V V V V V V V V V V V V V V V V V V "
};
