/* XPM */
static char * ClockDivider_xpm[] = {
"36 10 3 1",
"   c None",
".  c #FFFFFF",
"+  c #186B7B",
"...+++++++++++.......+++++++++++....",
"...+++++++++++.......+++++++++++....",
"...++.......++.......++.......++....",
"...++.......++.......++.......++....",
"...++.......++.......++.......++....",
"...++.......++.......++.......++....",
"...++.......++.......++.......++....",
"...++.......++.......++.......++....",
"+++++.......+++++++++++.......++++++",
"+++++.......+++++++++++.......++++++"};
