/* XPM */
static char * SerialCrossover_xpm[] = {
"43 10 30 1",
"   c None",
".  c #FFFFFF",
"+  c #A5BDBD",
"@  c #8CB5BD",
"#  c #739CA5",
"$  c #186B7B",
"%  c #297384",
"&  c #216B84",
"*  c #C6D6DE",
"=  c #B5CED6",
"-  c #CEDEE7",
";  c #D6E7E7",
">  c #94B5BD",
",  c #8CADB5",
"'  c #F7F7F7",
")  c #EFF7F7",
"!  c #9CBDC6",
"~  c #7BA5B5",
"{  c #7BADB5",
"]  c #397B8C",
"^  c #E7EFEF",
"/  c #EFEFEF",
"(  c #84B5BD",
"_  c #84ADB5",
":  c #73A5AD",
"<  c #428494",
"[  c #BDD6D6",
"}  c #A5C6CE",
"|  c #ADCECE",
"1  c #000000",
"..................+@#......................",
"..................$%%&#....................",
".................*=-;>%,...................",
"''''''.........'')!~{-{]^/////////////////^",
"(((((((((((((((((_:::@*$$&&&&&&&&&&&&&&&&&<",
":::::::::::::::::::::_*$$$$$$$$$$$$$$$$$$$$",
")))))))))))))))))/@:~[@%------------------^",
"..................---}%@...................",
".................|%<]$:'...................",
".................'|{@*....................."};
