/* XPM */
static char * TelnetTerminal_xpm[] = {
"89 67 170 2",
"    c None",
".   c #98A3EB",
"+   c #6C7AD0",
"@   c #5B66AE",
"#   c #5B66AF",
"$   c #5C67B0",
"%   c #5D68B1",
"&   c #5E69B2",
"*   c #5F6AB3",
"=   c #606BB4",
"-   c #616CB6",
";   c #626DB7",
">   c #636EB8",
",   c #646FB9",
"'   c #6570BA",
")   c #6671BB",
"!   c #6772BC",
"~   c #646CA2",
"{   c #2E3357",
"]   c #444C82",
"^   c #5C66B0",
"/   c #6672C2",
"(   c #6470BF",
"_   c #6470BC",
":   c #6670BA",
"<   c #6872BE",
"[   c #525C9E",
"}   c #5F6AB0",
"|   c #6E78C4",
"1   c #707AC6",
"2   c #727CC8",
"3   c #727ECA",
"4   c #737FCB",
"5   c #171A2C",
"6   c #202020",
"7   c #373A4C",
"8   c #6571C1",
"9   c #636EBB",
"0   c #646FBA",
"a   c #5E68AF",
"b   c #6570B9",
"c   c #8E95C7",
"d   c #8C94C6",
"e   c #5E68B1",
"f   c #7E8BDF",
"g   c #717DCC",
"h   c #6672BE",
"i   c #6A74C0",
"j   c #6C76C2",
"k   c #6A76C3",
"l   c #000000",
"m   c #575A6C",
"n   c #6771B4",
"o   c #EAECF5",
"p   c #9097C8",
"q   c #B9BEDC",
"r   c #CBCFE6",
"s   c #DADCEC",
"t   c #949CCA",
"u   c #D1D4E8",
"v   c #D5D8EA",
"w   c #606BB0",
"x   c #F6F7FA",
"y   c #CACEE5",
"z   c #ADB2D6",
"A   c #D8DAEC",
"B   c #E8EAF4",
"C   c #C2C6E1",
"D   c #8B93C6",
"E   c #5E6AB2",
"F   c #707CCB",
"G   c #6A76C2",
"H   c #6570BD",
"I   c #6772BE",
"J   c #6974C2",
"K   c #6D78C5",
"L   c #9EA5CF",
"M   c #F8F8FC",
"N   c #6670B3",
"O   c #A4AAD2",
"P   c #D3D6E9",
"Q   c #C6CAE3",
"R   c #E6E8F3",
"S   c #8089C0",
"T   c #A9AED4",
"U   c #AEB3D7",
"V   c #626EBA",
"W   c #6874C4",
"X   c #8997F3",
"Y   c #7885D8",
"Z   c #7A87DA",
"`   c #C7CAE3",
" .  c #DCDEEE",
"..  c #9299C9",
"+.  c #AAB0D5",
"@.  c #B3B8DA",
"#.  c #C0C4E0",
"$.  c #AFB4D7",
"%.  c #7780BC",
"&.  c #6872B4",
"*.  c #616CB8",
"=.  c #6773C3",
"-.  c #7784D7",
";.  c #7986D9",
">.  c #737FCE",
",.  c #7D8ADE",
"'.  c #7885D5",
").  c #6A74B6",
"!.  c #727BB9",
"~.  c #9DA4CE",
"{.  c #6C75B6",
"].  c #A9AFD5",
"^.  c #9EA4CF",
"/.  c #A8AED4",
"(.  c #848CC2",
"_.  c #8088C0",
":.  c #98A6FF",
"<.  c #7E8ADC",
"[.  c #C1C9FF",
"}.  c #949EDE",
"|.  c #4C5591",
"1.  c #5C66AA",
"2.  c #616CB2",
"3.  c #7D89DB",
"4.  c #717CCA",
"5.  c #939DDD",
"6.  c #7E88CE",
"7.  c #5B65A8",
"8.  c #646EB6",
"9.  c #606AB1",
"0.  c #6873BC",
"a.  c #7884D4",
"b.  c #7682D0",
"c.  c #5660A4",
"d.  c #505A9A",
"e.  c #515B9B",
"f.  c #525C9C",
"g.  c #535D9D",
"h.  c #545E9E",
"i.  c #555F9F",
"j.  c #5660A0",
"k.  c #5761A2",
"l.  c #5862A3",
"m.  c #5963A4",
"n.  c #5A64A5",
"o.  c #5B65A6",
"p.  c #5C66A7",
"q.  c #5C67A8",
"r.  c #FFFFFF",
"s.  c #BFBFBF",
"t.  c #808080",
"u.  c #DADA40",
"v.  c #E6E680",
"w.  c #CDCD00",
"x.  c #8080E6",
"y.  c #BFBFF2",
"z.  c #4040DA",
"A.  c #F2F2BF",
"B.  c #4B5490",
"C.  c #616CB5",
"D.  c #424A7F",
"E.  c #969FD8",
"F.  c #B9BFE5",
"G.  c #3A4066",
"H.  c #DCDFF2",
"I.  c #565F98",
"J.  c #1D2033",
"K.  c #9C9FB2",
"L.  c #5C66AB",
"M.  c #363C68",
". + + + + + + + + + + + + + + + + + + + + + + + + + + + + + + + + + + + + + + + + + + + + + + + + + + + + + + + + + + + + + + + + + + + + + + + + + + + + + + + + + + + + + + + B.",
"+ @ @ @ @ @ @ @ @ @ @ @ @ @ @ @ @ @ @ @ @ @ @ @ @ @ @ @ @ @ @ @ @ @ @ @ @ @ @ @ @ @ @ @ @ @ @ @ # $ % & * = - ; > , ' ) ! ! ! ! ! ! ! ! ! ! ! ! ! ! ! ! ! ! ! ! ! ! ! ! ! ! ! C.D.",
"+ @ ~ { ] @ @ @ @ ] @ @ @ @ @ @ @ @ @ @ @ @ @ @ @ @ @ @ @ @ @ @ @ @ @ @ @ @ @ @ @ @ @ @ @ @ @ @ ^ + / ( _ : < [ } | 1 2 3 4 4 4 4 4 4 4 4 4 4 4 4 4 4 4 4 4 4 4 4 4 4 4 4 4 4 ! D.",
"+ @ @ 5 6 ~ @ @ 7 ~ @ @ @ @ @ @ @ @ @ @ @ @ @ @ @ @ @ @ @ @ @ @ @ @ @ @ @ @ @ @ @ @ @ @ @ @ @ @ ^ 8 9 9 0 : < a b | 1 2 3 4 4 4 4 4 4 4 4 4 4 E.F.F.F.F.4 4 4 4 4 4 4 4 4 4 4 ! D.",
"+ @ @ ~ 6 5 @ 7 ] @ @ @ @ @ @ c d @ @ @ @ @ @ @ @ @ @ @ @ @ @ @ @ @ @ @ @ @ @ @ @ @ @ @ @ @ @ @ ^ @ e f g ( h i j ( k 2 3 4 4 4 4 4 4 4 4 4 4 F.t.t.t.s.G.4 4 4 H.E.E.s.I.4 4 ! D.",
"+ @ @ @ ] l m ] @ @ @ n o p q r s t u v w x y z A B C B D @ @ @ @ @ @ @ @ @ @ @ @ @ @ @ @ @ @ @ ^ $ E F G H I i j J K 2 3 4 4 4 F.F.F.4 4 4 4 F.G.4 4 F.G.4 4 4 4 H.s.J.4 4 4 ! D.",
"+ @ @ @ ] m l ] @ @ @ @ L M N z O P Q R S x } z T U T U O @ @ @ @ @ @ @ @ @ @ @ @ @ @ @ @ @ @ @ ^ ( V + W X Y X Z | 1 X f 4 4 4 K.t.t.G.4 4 4 F.G.4 4 F.G.4 4 4 E.s.s.E.4 4 4 ! D.",
"+ @ @ ] m @ 5 6 ~ @ @ @ `  ...+.@.#.$.%.&.x @ z O z O z O @ @ @ @ @ @ @ @ @ @ @ @ @ @ @ @ @ @ @ ^ *.- =.h -.F ;.>.| 1 ,.'.4 4 4 4 4 4 4 4 4 4 F.K.F.F.H.G.4 4 4 K.J.4 K.I.4 4 ! D.",
"+ @ ~ 7 @ @ ~ 6 5 @ @ ).d !.~.{.].&.^./.).T @ (._.(._.(._.@ @ @ @ @ @ @ @ @ @ @ @ @ @ @ @ @ @ @ ^ @ e :.<.[.}.|.1.[ 2.f '.4 4 4 4 4 4 4 4 4 4 4 G.G.G.G.I.4 4 4 4 4 4 4 4 4 4 ! D.",
"+ @ ] @ @ @ @ ] { ~ @ @ @ @ @ @ @ @ @ @ @ @ @ @ @ @ @ @ @ @ @ @ @ @ @ @ @ @ @ @ @ @ @ @ @ @ @ @ ^ $ E 3.4.5.6.7.8.9.0.a.b.4 4 4 4 4 4 4 4 4 4 4 4 4 4 4 4 4 4 4 4 4 4 4 4 4 4 ! D.",
"+ c.d.d.d.d.d.d.d.d.d.d.d.d.d.d.d.d.d.d.d.d.d.d.d.d.d.d.d.d.d.d.d.d.d.d.d.d.d.d.d.d.d.d.d.d.d.d.e.f.g.h.i.j.k.l.m.n.o.p.q.q.q.q.q.q.q.q.q.q.q.q.q.q.q.q.q.q.q.q.q.q.q.q.q.q.q.L.D.",
"+ d.r.s.s.s.t.r.r.r.r.r.r.r.r.r.r.r.r.r.r.r.r.r.r.r.r.r.r.r.r.r.r.r.r.r.r.r.r.r.r.r.r.r.r.r.r.r.r.r.r.r.r.r.r.r.r.r.r.r.r.r.r.r.r.r.r.r.r.r.r.r.r.r.r.r.r.r.r.r.r.r.r.r.r.r.r.d.D.",
"+ d.s.t.t.t.t.r.u.v.w.w.w.w.w.w.w.w.w.w.u.v.w.r.r.r.r.r.r.r.r.r.r.r.r.r.r.r.r.r.r.r.r.r.r.r.r.r.r.r.r.r.r.r.r.r.r.r.r.l l l r.r.r.r.r.r.r.r.r.r.r.r.r.r.r.r.r.r.r.r.r.r.r.r.r.d.D.",
"+ d.s.t.t.t.t.r.v.w.w.u.v.u.w.w.w.w.w.w.w.v.w.r.r.r.x.y.x.r.r.x.x.r.x.r.r.r.r.r.r.x.x.y.r.r.r.r.r.r.r.r.r.t.r.r.r.r.r.l l l r.r.r.r.r.r.r.r.r.r.r.r.r.r.r.r.r.r.r.r.r.r.r.r.r.d.D.",
"+ d.s.t.t.t.t.r.v.w.w.v.w.w.u.v.w.u.w.u.w.v.w.r.r.r.y.y.r.r.x.r.z.x.x.y.x.r.y.r.y.x.r.r.y.x.r.y.x.r.y.x.r.r.t.r.r.r.r.l l l r.r.r.r.r.r.r.r.r.r.r.r.r.r.r.r.r.r.r.r.r.r.r.r.r.d.D.",
"+ d.s.t.t.t.t.r.v.w.w.A.v.w.A.w.u.v.w.v.w.v.w.r.r.r.r.r.r.y.y.r.x.y.x.y.x.x.y.x.r.x.r.r.x.r.x.z.r.y.z.x.x.r.s.s.r.r.r.l l l r.r.r.r.r.r.r.r.r.r.r.r.r.r.r.r.r.r.r.r.r.r.r.r.r.d.D.",
"+ d.s.t.t.t.t.r.v.w.w.v.w.w.v.w.w.v.v.v.w.v.w.r.r.r.r.r.r.x.r.r.x.r.x.x.y.x.y.x.r.x.r.y.x.r.x.x.r.r.x.r.y.s.s.r.r.r.r.l l l r.r.r.r.r.r.r.r.r.r.r.r.r.r.r.r.r.r.r.r.r.r.r.r.r.d.D.",
"+ d.s.t.t.t.t.r.v.v.w.u.w.w.u.w.w.u.w.v.u.A.w.r.r.r.r.r.r.y.r.r.y.r.y.y.y.y.y.r.y.y.x.r.y.x.r.y.r.r.y.x.r.s.r.r.r.r.r.l l l r.r.r.r.r.r.r.r.r.r.r.r.r.r.r.r.r.r.r.r.r.r.r.r.r.d.D.",
"+ d.s.t.t.t.t.r.v.v.v.v.v.v.v.v.v.A.r.v.v.v.v.r.r.r.r.r.r.r.r.r.r.r.r.r.r.r.r.r.r.r.r.r.r.r.r.r.r.r.r.r.r.r.r.r.r.r.r.t.t.t.r.r.r.r.r.r.r.r.r.r.r.r.r.r.r.r.r.r.r.r.r.r.r.r.r.d.D.",
"+ d.s.t.t.t.t.r.r.r.r.r.r.r.r.r.r.r.r.r.r.r.r.r.r.r.r.r.r.r.r.r.r.r.r.r.r.r.r.r.r.r.r.r.r.r.r.r.r.r.r.r.r.r.r.r.r.r.r.r.r.r.r.r.r.r.r.r.r.r.r.r.r.r.r.r.r.r.r.r.r.r.r.r.r.r.r.d.D.",
"+ d.s.t.t.t.t.r.r.r.r.r.r.r.r.r.r.r.r.r.r.r.r.r.r.r.r.r.r.r.r.r.r.r.r.r.r.r.r.r.r.r.r.r.r.r.r.r.r.r.r.r.r.r.r.r.r.r.r.r.r.r.r.r.r.r.r.r.r.r.r.r.r.r.r.r.r.r.r.r.r.r.r.r.r.r.r.d.D.",
"+ d.s.t.t.t.t.r.r.r.r.r.r.r.r.r.r.r.r.r.r.r.r.r.r.r.r.r.r.r.r.r.r.r.r.r.r.r.r.r.r.r.r.r.r.r.r.r.r.r.r.r.r.r.r.r.r.r.r.r.r.r.r.r.r.r.r.r.r.r.r.r.r.r.r.r.r.r.r.r.r.r.r.r.r.r.r.d.D.",
"+ d.s.t.t.t.t.r.r.r.r.r.r.r.r.r.r.r.r.r.r.r.r.r.r.r.r.r.r.r.r.r.r.r.r.r.r.r.r.r.r.r.r.r.r.r.r.r.r.r.r.r.r.r.r.r.r.r.r.r.r.r.r.r.r.r.r.r.r.r.r.r.r.r.r.r.r.r.r.r.r.r.r.r.r.r.r.d.D.",
"+ d.s.t.t.t.t.r.r.r.r.r.r.r.r.r.r.r.r.r.r.r.r.r.r.r.r.r.r.r.r.r.r.r.r.r.r.r.r.r.r.r.r.r.r.r.r.r.r.r.r.r.r.r.r.r.r.r.r.r.r.r.r.r.r.r.r.r.r.r.r.r.r.r.r.r.r.r.r.r.r.r.r.r.r.r.r.d.D.",
"+ d.s.t.t.t.t.r.r.r.r.r.r.r.r.r.r.r.r.r.r.r.r.r.r.r.r.r.r.r.r.r.r.r.r.r.r.r.r.r.r.r.r.r.r.r.r.r.r.r.r.r.r.r.r.r.r.r.r.r.r.r.r.r.r.r.r.r.r.r.r.r.r.r.r.r.r.r.r.r.r.r.r.r.r.r.r.d.D.",
"+ d.s.t.t.t.t.r.r.r.r.r.r.r.r.r.r.r.r.r.r.r.r.r.r.r.r.r.r.r.r.r.r.r.r.r.r.r.r.r.r.r.r.r.r.r.r.r.r.r.r.r.r.r.r.r.r.r.r.r.r.r.r.r.r.r.r.r.r.r.r.r.r.r.r.r.r.r.r.r.r.r.r.r.r.r.r.d.D.",
"+ d.s.t.t.t.t.r.r.r.r.r.r.r.r.r.r.r.r.r.r.r.r.r.r.r.r.r.r.r.r.r.r.r.r.r.r.r.r.r.r.r.r.r.r.r.r.r.r.r.r.r.r.r.r.r.r.r.r.r.r.r.r.r.r.r.r.r.r.r.r.r.r.r.r.r.r.r.r.r.r.r.r.r.r.r.r.d.D.",
"+ d.s.t.t.t.t.r.r.r.r.r.r.r.r.r.r.r.r.r.r.r.r.r.r.r.r.r.r.r.r.r.r.r.r.r.r.r.r.r.r.r.r.r.r.r.r.r.r.r.r.r.r.r.r.r.r.r.r.r.r.r.r.r.r.r.r.r.r.r.r.r.r.r.r.r.r.r.r.r.r.r.r.r.r.r.r.d.D.",
"+ d.s.t.t.t.t.r.r.r.r.r.r.r.r.r.r.r.r.r.r.r.r.r.r.r.r.r.r.r.r.r.r.r.r.r.r.r.r.r.r.r.r.r.r.r.r.r.r.r.r.r.r.r.r.r.r.r.r.r.r.r.r.r.r.r.r.r.r.r.r.r.r.r.r.r.r.r.r.r.r.r.r.r.r.r.r.d.D.",
"+ d.s.t.t.t.t.r.r.r.r.r.r.r.r.r.r.r.r.r.r.r.r.r.r.r.r.r.r.r.r.r.r.r.r.r.r.r.r.r.r.r.r.r.r.r.r.r.r.r.r.r.r.r.r.r.r.r.r.r.r.r.r.r.r.r.r.r.r.r.r.r.r.r.r.r.r.r.r.r.r.r.r.r.r.r.r.d.D.",
"+ d.s.t.t.t.t.r.r.r.r.r.r.r.r.r.r.r.r.r.r.r.r.r.r.r.r.r.r.r.r.r.r.r.r.r.r.r.r.r.r.r.r.r.r.r.r.r.r.r.r.r.r.r.r.r.r.r.r.r.r.r.r.r.r.r.r.r.r.r.r.r.r.r.r.r.r.r.r.r.r.r.r.r.r.r.r.d.D.",
"+ d.s.t.t.t.t.r.r.r.r.r.r.r.r.r.r.r.r.r.r.r.r.r.r.r.r.r.r.r.r.r.r.r.r.r.r.r.r.r.r.r.r.r.r.r.r.r.r.r.r.r.r.r.r.r.r.r.r.r.r.r.r.r.r.r.r.r.r.r.r.r.r.r.r.r.r.r.r.r.r.r.r.r.r.r.r.d.D.",
"+ d.s.t.t.t.t.r.r.r.r.r.r.r.r.r.r.r.r.r.r.r.r.r.r.r.r.r.r.r.r.r.r.r.r.r.r.r.r.r.r.r.r.r.r.r.r.r.r.r.r.r.r.r.r.r.r.r.r.r.r.r.r.r.r.r.r.r.r.r.r.r.r.r.r.r.r.r.r.r.r.r.r.r.r.r.r.d.D.",
"+ d.s.t.t.t.t.r.r.r.r.r.r.r.r.r.r.r.r.r.r.r.r.r.r.r.r.r.r.r.r.r.r.r.r.r.r.r.r.r.r.r.r.r.r.r.r.r.r.r.r.r.r.r.r.r.r.r.r.r.r.r.r.r.r.r.r.r.r.r.r.r.r.r.r.r.r.r.r.r.r.r.r.r.r.r.r.d.D.",
"+ d.s.t.t.t.t.r.r.r.r.r.r.r.r.r.r.r.r.r.r.r.r.r.r.r.r.r.r.r.r.r.r.r.r.r.r.r.r.r.r.r.r.r.r.r.r.r.r.r.r.r.r.r.r.r.r.r.r.r.r.r.r.r.r.r.r.r.r.r.r.r.r.r.r.r.r.r.r.r.r.r.r.r.r.r.r.d.D.",
"+ d.s.t.t.t.t.r.r.r.r.r.r.r.r.r.r.r.r.r.r.r.r.r.r.r.r.r.r.r.r.r.r.r.r.r.r.r.r.r.r.r.r.r.r.r.r.r.r.r.r.r.r.r.r.r.r.r.r.r.r.r.r.r.r.r.r.r.r.r.r.r.r.r.r.r.r.r.r.r.r.r.r.r.r.r.r.d.D.",
"+ d.s.t.t.t.t.r.r.r.r.r.r.r.r.r.r.r.r.r.r.r.r.r.r.r.r.r.r.r.r.r.r.r.r.r.r.r.r.r.r.r.r.r.r.r.r.r.r.r.r.r.r.r.r.r.r.r.r.r.r.r.r.r.r.r.r.r.r.r.r.r.r.r.r.r.r.r.r.r.r.r.r.r.r.r.r.d.D.",
"+ d.s.t.t.t.t.r.r.r.r.r.r.r.r.r.r.r.r.r.r.r.r.r.r.r.r.r.r.r.r.r.r.r.r.r.r.r.r.r.r.r.r.r.r.r.r.r.r.r.r.r.r.r.r.r.r.r.r.r.r.r.r.r.r.r.r.r.r.r.r.r.r.r.r.r.r.r.r.r.r.r.r.r.r.r.r.d.D.",
"+ d.s.t.t.t.t.r.r.r.r.r.r.r.r.r.r.r.r.r.r.r.r.r.r.r.r.r.r.r.r.r.r.r.r.r.r.r.r.r.r.r.r.r.r.r.r.r.r.r.r.r.r.r.r.r.r.r.r.r.r.r.r.r.r.r.r.r.r.r.r.r.r.r.r.r.r.r.r.r.r.r.r.r.r.r.r.d.D.",
"+ d.s.t.t.t.t.r.r.r.r.r.r.r.r.r.r.r.r.r.r.r.r.r.r.r.r.r.r.r.r.r.r.r.r.r.r.r.r.r.r.r.r.r.r.r.r.r.r.r.r.r.r.r.r.r.r.r.r.r.r.r.r.r.r.r.r.r.r.r.r.r.r.r.r.r.r.r.r.r.r.r.r.r.r.r.r.d.D.",
"+ d.s.t.t.t.t.r.r.r.r.r.r.r.r.r.r.r.r.r.r.r.r.r.r.r.r.r.r.r.r.r.r.r.r.r.r.r.r.r.r.r.r.r.r.r.r.r.r.r.r.r.r.r.r.r.r.r.r.r.r.r.r.r.r.r.r.r.r.r.r.r.r.r.r.r.r.r.r.r.r.r.r.r.r.r.r.d.D.",
"+ d.s.t.t.t.t.r.r.r.r.r.r.r.r.r.r.r.r.r.r.r.r.r.r.r.r.r.r.r.r.r.r.r.r.r.r.r.r.r.r.r.r.r.r.r.r.r.r.r.r.r.r.r.r.r.r.r.r.r.r.r.r.r.r.r.r.r.r.r.r.r.r.r.r.r.r.r.r.r.r.r.r.r.r.r.r.d.D.",
"+ d.s.t.t.t.t.r.r.r.r.r.r.r.r.r.r.r.r.r.r.r.r.r.r.r.r.r.r.r.r.r.r.r.r.r.r.r.r.r.r.r.r.r.r.r.r.r.r.r.r.r.r.r.r.r.r.r.r.r.r.r.r.r.r.r.r.r.r.r.r.r.r.r.r.r.r.r.r.r.r.r.r.r.r.r.r.d.D.",
"+ d.s.t.t.t.t.r.r.r.r.r.r.r.r.r.r.r.r.r.r.r.r.r.r.r.r.r.r.r.r.r.r.r.r.r.r.r.r.r.r.r.r.r.r.r.r.r.r.r.r.r.r.r.r.r.r.r.r.r.r.r.r.r.r.r.r.r.r.r.r.r.r.r.r.r.r.r.r.r.r.r.r.r.r.r.r.d.D.",
"+ d.s.t.t.t.t.r.r.r.r.r.r.r.r.r.r.r.r.r.r.r.r.r.r.r.r.r.r.r.r.r.r.r.r.r.r.r.r.r.r.r.r.r.r.r.r.r.r.r.r.r.r.r.r.r.r.r.r.r.r.r.r.r.r.r.r.r.r.r.r.r.r.r.r.r.r.r.r.r.r.r.r.r.r.r.r.d.D.",
"+ d.s.t.t.t.t.r.r.r.r.r.r.r.r.r.r.r.r.r.r.r.r.r.r.r.r.r.r.r.r.r.r.r.r.r.r.r.r.r.r.r.r.r.r.r.r.r.r.r.r.r.r.r.r.r.r.r.r.r.r.r.r.r.r.r.r.r.r.r.r.r.r.r.r.r.r.r.r.r.r.r.r.r.r.r.r.d.D.",
"+ d.s.t.t.t.t.r.r.r.r.r.r.r.r.r.r.r.r.r.r.r.r.r.r.r.r.r.r.r.r.r.r.r.r.r.r.r.r.r.r.r.r.r.r.r.r.r.r.r.r.r.r.r.r.r.r.r.r.r.r.r.r.r.r.r.r.r.r.r.r.r.r.r.r.r.r.r.r.r.r.r.r.r.r.r.r.d.D.",
"+ d.s.t.t.t.t.r.r.r.r.r.r.r.r.r.r.r.r.r.r.r.r.r.r.r.r.r.r.r.r.r.r.r.r.r.r.r.r.r.r.r.r.r.r.r.r.r.r.r.r.r.r.r.r.r.r.r.r.r.r.r.r.r.r.r.r.r.r.r.r.r.r.r.r.r.r.r.r.r.r.r.r.r.r.r.r.d.D.",
"+ d.s.t.t.t.t.r.r.r.r.r.r.r.r.r.r.r.r.r.r.r.r.r.r.r.r.r.r.r.r.r.r.r.r.r.r.r.r.r.r.r.r.r.r.r.r.r.r.r.r.r.r.r.r.r.r.r.r.r.r.r.r.r.r.r.r.r.r.r.r.r.r.r.r.r.r.r.r.r.r.r.r.r.r.r.r.d.D.",
"+ d.s.t.t.t.t.r.r.r.r.r.r.r.r.r.r.r.r.r.r.r.r.r.r.r.r.r.r.r.r.r.r.r.r.r.r.r.r.r.r.r.r.r.r.r.r.r.r.r.r.r.r.r.r.r.r.r.r.r.r.r.r.r.r.r.r.r.r.r.r.r.r.r.r.r.r.r.r.r.r.r.r.r.r.r.r.d.D.",
"+ d.s.t.t.t.t.r.r.r.r.r.r.r.r.r.r.r.r.r.r.r.r.r.r.r.r.r.r.r.r.r.r.r.r.r.r.r.r.r.r.r.r.r.r.r.r.r.r.r.r.r.r.r.r.r.r.r.r.r.r.r.r.r.r.r.r.r.r.r.r.r.r.r.r.r.r.r.r.r.r.r.r.r.r.r.r.d.D.",
"+ d.s.t.t.t.t.r.r.r.r.r.r.r.r.r.r.r.r.r.r.r.r.r.r.r.r.r.r.r.r.r.r.r.r.r.r.r.r.r.r.r.r.r.r.r.r.r.r.r.r.r.r.r.r.r.r.r.r.r.r.r.r.r.r.r.r.r.r.r.r.r.r.r.r.r.r.r.r.r.r.r.r.r.r.r.r.d.D.",
"+ d.s.t.t.t.t.r.r.r.r.r.r.r.r.r.r.r.r.r.r.r.r.r.r.r.r.r.r.r.r.r.r.r.r.r.r.r.r.r.r.r.r.r.r.r.r.r.r.r.r.r.r.r.r.r.r.r.r.r.r.r.r.r.r.r.r.r.r.r.r.r.r.r.r.r.r.r.r.r.r.r.r.r.r.r.r.d.D.",
"+ d.s.t.t.t.t.r.r.r.r.r.r.r.r.r.r.r.r.r.r.r.r.r.r.r.r.r.r.r.r.r.r.r.r.r.r.r.r.r.r.r.r.r.r.r.r.r.r.r.r.r.r.r.r.r.r.r.r.r.r.r.r.r.r.r.r.r.r.r.r.r.r.r.r.r.r.r.r.r.r.r.r.r.r.r.r.d.D.",
"+ d.s.t.t.t.t.r.r.r.r.r.r.r.r.r.r.r.r.r.r.r.r.r.r.r.r.r.r.r.r.r.r.r.r.r.r.r.r.r.r.r.r.r.r.r.r.r.r.r.r.r.r.r.r.r.r.r.r.r.r.r.r.r.r.r.r.r.r.r.r.r.r.r.r.r.r.r.r.r.r.r.r.r.r.r.r.d.D.",
"+ d.s.t.t.t.t.r.r.r.r.r.r.r.r.r.r.r.r.r.r.r.r.r.r.r.r.r.r.r.r.r.r.r.r.r.r.r.r.r.r.r.r.r.r.r.r.r.r.r.r.r.r.r.r.r.r.r.r.r.r.r.r.r.r.r.r.r.r.r.r.r.r.r.r.r.r.r.r.r.r.r.r.r.r.r.r.d.D.",
"+ d.s.t.t.t.t.r.r.r.r.r.r.r.r.r.r.r.r.r.r.r.r.r.r.r.r.r.r.r.r.r.r.r.r.r.r.r.r.r.r.r.r.r.r.r.r.r.r.r.r.r.r.r.r.r.r.r.r.r.r.r.r.r.r.r.r.r.r.r.r.r.r.r.r.r.r.r.r.r.r.r.r.r.r.r.r.d.D.",
"+ d.s.t.t.t.t.r.r.r.r.r.r.r.r.r.r.r.r.r.r.r.r.r.r.r.r.r.r.r.r.r.r.r.r.r.r.r.r.r.r.r.r.r.r.r.r.r.r.r.r.r.r.r.r.r.r.r.r.r.r.r.r.r.r.r.r.r.r.r.r.r.r.r.r.r.r.r.r.r.r.r.r.r.r.r.r.d.D.",
"+ d.s.t.t.t.t.r.r.r.r.r.r.r.r.r.r.r.r.r.r.r.r.r.r.r.r.r.r.r.r.r.r.r.r.r.r.r.r.r.r.r.r.r.r.r.r.r.r.r.r.r.r.r.r.r.r.r.r.r.r.r.r.r.r.r.r.r.r.r.r.r.r.r.r.r.r.r.r.r.r.r.r.r.r.r.r.d.D.",
"+ d.s.t.t.t.t.r.r.r.r.r.r.r.r.r.r.r.r.r.r.r.r.r.r.r.r.r.r.r.r.r.r.r.r.r.r.r.r.r.r.r.r.r.r.r.r.r.r.r.r.r.r.r.r.r.r.r.r.r.r.r.r.r.r.r.r.r.r.r.r.r.r.r.r.r.r.r.r.r.r.r.r.r.r.r.r.d.D.",
"+ d.s.t.t.t.t.r.r.r.r.r.r.r.r.r.r.r.r.r.r.r.r.r.r.r.r.r.r.r.r.r.r.r.r.r.r.r.r.r.r.r.r.r.r.r.r.r.r.r.r.r.r.r.r.r.r.r.r.r.r.r.r.r.r.r.r.r.r.r.r.r.r.r.r.r.r.r.r.r.r.r.r.r.r.r.r.d.D.",
"+ d.s.t.t.t.t.r.r.r.r.r.r.r.r.r.r.r.r.r.r.r.r.r.r.r.r.r.r.r.r.r.r.r.r.r.r.r.r.r.r.r.r.r.r.r.r.r.r.r.r.r.r.r.r.r.r.r.r.r.r.r.r.r.r.r.r.r.r.r.r.r.r.r.r.r.r.r.r.r.r.r.r.r.r.r.r.d.D.",
"+ d.s.t.t.t.t.r.r.r.r.r.r.r.r.r.r.r.r.r.r.r.r.r.r.r.r.r.r.r.r.r.r.r.r.r.r.r.r.r.r.r.r.r.r.r.r.r.r.r.r.r.r.r.r.r.r.r.r.r.r.r.r.r.r.r.r.r.r.r.r.r.r.r.r.r.r.r.r.r.r.r.r.r.r.r.r.d.D.",
"+ d.s.t.t.t.t.r.r.r.r.r.r.r.r.r.r.r.r.r.r.r.r.r.r.r.r.r.r.r.r.r.r.r.r.r.r.r.r.r.r.r.r.r.r.r.r.r.r.r.r.r.r.r.r.r.r.r.r.r.r.r.r.r.r.r.r.r.r.r.r.r.r.r.r.r.r.r.r.r.r.r.r.r.r.r.r.d.D.",
"+ d.s.s.s.s.t.r.r.r.r.r.r.r.r.r.r.r.r.r.r.r.r.r.r.r.r.r.r.r.r.r.r.r.r.r.r.r.r.r.r.r.r.r.r.r.r.r.r.r.r.r.r.r.r.r.r.r.r.r.r.r.r.r.r.r.r.r.r.r.r.r.r.r.r.r.r.r.r.r.r.r.r.r.r.r.r.d.D.",
"+ c.d.d.d.d.d.d.d.d.d.d.d.d.d.d.d.d.d.d.d.d.d.d.d.d.d.d.d.d.d.d.d.d.d.d.d.d.d.d.d.d.d.d.d.d.d.d.d.d.d.d.d.d.d.d.d.d.d.d.d.d.d.d.d.d.d.d.d.d.d.d.d.d.d.d.d.d.d.d.d.d.d.d.d.d.d.c.D.",
"B.D.D.D.D.D.D.D.D.D.D.D.D.D.D.D.D.D.D.D.D.D.D.D.D.D.D.D.D.D.D.D.D.D.D.D.D.D.D.D.D.D.D.D.D.D.D.D.D.D.D.D.D.D.D.D.D.D.D.D.D.D.D.D.D.D.D.D.D.D.D.D.D.D.D.D.D.D.D.D.D.D.D.D.D.D.D.D.M."};
